<mxfile host="app.diagrams.net" agent="Mozilla/5.0 (Windows NT 10.0; Win64; x64; rv:135.0) Gecko/20100101 Firefox/135.0" version="26.0.6">
  <diagram name="Page-1" id="NimZ_R5bTSdg0LpFFNY7">
    <mxGraphModel dx="1618" dy="772" grid="1" gridSize="10" guides="1" tooltips="1" connect="1" arrows="1" fold="1" page="1" pageScale="1" pageWidth="827" pageHeight="1169" math="0" shadow="0">
      <root>
        <mxCell id="0" />
        <mxCell id="1" parent="0" />
        <mxCell id="q0aATwDQZf616VQxDngV-97" value="" style="rounded=0;whiteSpace=wrap;html=1;strokeWidth=3;" vertex="1" parent="1">
          <mxGeometry x="120" y="15" width="1020" height="630" as="geometry" />
        </mxCell>
        <mxCell id="q0aATwDQZf616VQxDngV-56" style="edgeStyle=orthogonalEdgeStyle;rounded=0;orthogonalLoop=1;jettySize=auto;html=1;exitX=0.5;exitY=1;exitDx=0;exitDy=0;entryX=0.5;entryY=0;entryDx=0;entryDy=0;endArrow=none;endFill=0;strokeWidth=2;" edge="1" parent="1" source="q0aATwDQZf616VQxDngV-2" target="q0aATwDQZf616VQxDngV-29">
          <mxGeometry relative="1" as="geometry" />
        </mxCell>
        <mxCell id="q0aATwDQZf616VQxDngV-57" style="edgeStyle=orthogonalEdgeStyle;rounded=0;orthogonalLoop=1;jettySize=auto;html=1;exitX=1;exitY=0.5;exitDx=0;exitDy=0;entryX=0;entryY=0.5;entryDx=0;entryDy=0;" edge="1" parent="1" source="q0aATwDQZf616VQxDngV-2" target="q0aATwDQZf616VQxDngV-6">
          <mxGeometry relative="1" as="geometry" />
        </mxCell>
        <mxCell id="q0aATwDQZf616VQxDngV-2" value="&lt;font style=&quot;font-size: 11px;&quot;&gt;Counsil&lt;/font&gt;" style="rounded=0;whiteSpace=wrap;html=1;" vertex="1" parent="1">
          <mxGeometry x="240" y="120" width="60" height="30" as="geometry" />
        </mxCell>
        <mxCell id="q0aATwDQZf616VQxDngV-75" style="rounded=0;orthogonalLoop=1;jettySize=auto;html=1;exitX=1;exitY=1;exitDx=0;exitDy=0;entryX=0;entryY=0;entryDx=0;entryDy=0;endArrow=none;endFill=0;" edge="1" parent="1" source="q0aATwDQZf616VQxDngV-3" target="q0aATwDQZf616VQxDngV-7">
          <mxGeometry relative="1" as="geometry" />
        </mxCell>
        <mxCell id="q0aATwDQZf616VQxDngV-3" value="&lt;u&gt;Colour&lt;/u&gt;" style="ellipse;whiteSpace=wrap;html=1;" vertex="1" parent="1">
          <mxGeometry x="380" y="90" width="60" height="20" as="geometry" />
        </mxCell>
        <mxCell id="q0aATwDQZf616VQxDngV-68" style="rounded=0;orthogonalLoop=1;jettySize=auto;html=1;exitX=1;exitY=0.5;exitDx=0;exitDy=0;entryX=0.25;entryY=1;entryDx=0;entryDy=0;endArrow=none;endFill=0;" edge="1" parent="1" source="q0aATwDQZf616VQxDngV-4" target="q0aATwDQZf616VQxDngV-2">
          <mxGeometry relative="1" as="geometry" />
        </mxCell>
        <mxCell id="q0aATwDQZf616VQxDngV-4" value="&lt;font style=&quot;font-size: 11px;&quot;&gt;counsil &lt;/font&gt;date" style="ellipse;whiteSpace=wrap;html=1;" vertex="1" parent="1">
          <mxGeometry x="170" y="160" width="60" height="30" as="geometry" />
        </mxCell>
        <mxCell id="q0aATwDQZf616VQxDngV-58" style="edgeStyle=orthogonalEdgeStyle;rounded=0;orthogonalLoop=1;jettySize=auto;html=1;exitX=1;exitY=0.5;exitDx=0;exitDy=0;entryX=0;entryY=0.5;entryDx=0;entryDy=0;endArrow=none;endFill=0;" edge="1" parent="1" source="q0aATwDQZf616VQxDngV-6" target="q0aATwDQZf616VQxDngV-7">
          <mxGeometry relative="1" as="geometry" />
        </mxCell>
        <mxCell id="q0aATwDQZf616VQxDngV-6" value="&lt;div&gt;Goes&lt;/div&gt;" style="rhombus;whiteSpace=wrap;html=1;" vertex="1" parent="1">
          <mxGeometry x="340" y="110" width="50" height="50" as="geometry" />
        </mxCell>
        <mxCell id="q0aATwDQZf616VQxDngV-54" style="edgeStyle=orthogonalEdgeStyle;rounded=0;orthogonalLoop=1;jettySize=auto;html=1;exitX=0.5;exitY=1;exitDx=0;exitDy=0;entryX=0.5;entryY=0;entryDx=0;entryDy=0;endArrow=none;endFill=0;strokeWidth=2;" edge="1" parent="1" source="q0aATwDQZf616VQxDngV-7" target="q0aATwDQZf616VQxDngV-27">
          <mxGeometry relative="1" as="geometry">
            <Array as="points">
              <mxPoint x="470" y="190" />
              <mxPoint x="470" y="190" />
            </Array>
          </mxGeometry>
        </mxCell>
        <mxCell id="q0aATwDQZf616VQxDngV-59" style="edgeStyle=orthogonalEdgeStyle;rounded=0;orthogonalLoop=1;jettySize=auto;html=1;exitX=1;exitY=0.5;exitDx=0;exitDy=0;entryX=0;entryY=0.5;entryDx=0;entryDy=0;endArrow=none;endFill=0;" edge="1" parent="1" source="q0aATwDQZf616VQxDngV-7" target="q0aATwDQZf616VQxDngV-13">
          <mxGeometry relative="1" as="geometry" />
        </mxCell>
        <mxCell id="q0aATwDQZf616VQxDngV-7" value="Team" style="rounded=0;whiteSpace=wrap;html=1;" vertex="1" parent="1">
          <mxGeometry x="440" y="120" width="60" height="30" as="geometry" />
        </mxCell>
        <mxCell id="q0aATwDQZf616VQxDngV-8" value="Team Name" style="ellipse;whiteSpace=wrap;html=1;" vertex="1" parent="1">
          <mxGeometry x="380" y="50" width="76" height="30" as="geometry" />
        </mxCell>
        <mxCell id="q0aATwDQZf616VQxDngV-67" style="rounded=0;orthogonalLoop=1;jettySize=auto;html=1;exitX=1;exitY=1;exitDx=0;exitDy=0;entryX=0;entryY=0;entryDx=0;entryDy=0;endArrow=none;endFill=0;" edge="1" parent="1" source="q0aATwDQZf616VQxDngV-9" target="q0aATwDQZf616VQxDngV-2">
          <mxGeometry relative="1" as="geometry" />
        </mxCell>
        <mxCell id="q0aATwDQZf616VQxDngV-9" value="&lt;u&gt;&lt;font style=&quot;font-size: 11px;&quot;&gt;counsil &lt;/font&gt;&lt;font style=&quot;font-size: 11px;&quot;&gt;id&lt;/font&gt;&lt;/u&gt;" style="ellipse;whiteSpace=wrap;html=1;" vertex="1" parent="1">
          <mxGeometry x="170" y="90" width="60" height="20" as="geometry" />
        </mxCell>
        <mxCell id="q0aATwDQZf616VQxDngV-10" value="Emblem" style="ellipse;whiteSpace=wrap;html=1;" vertex="1" parent="1">
          <mxGeometry x="470" y="40" width="60" height="20" as="geometry" />
        </mxCell>
        <mxCell id="q0aATwDQZf616VQxDngV-12" value="Number of Players" style="ellipse;whiteSpace=wrap;html=1;" vertex="1" parent="1">
          <mxGeometry x="500" y="70" width="80" height="40" as="geometry" />
        </mxCell>
        <mxCell id="q0aATwDQZf616VQxDngV-60" style="edgeStyle=orthogonalEdgeStyle;rounded=0;orthogonalLoop=1;jettySize=auto;html=1;exitX=0;exitY=0.5;exitDx=0;exitDy=0;entryX=1;entryY=0.5;entryDx=0;entryDy=0;" edge="1" parent="1" source="q0aATwDQZf616VQxDngV-15" target="q0aATwDQZf616VQxDngV-13">
          <mxGeometry relative="1" as="geometry" />
        </mxCell>
        <mxCell id="q0aATwDQZf616VQxDngV-13" value="Wins" style="rhombus;whiteSpace=wrap;html=1;" vertex="1" parent="1">
          <mxGeometry x="560" y="110" width="50" height="50" as="geometry" />
        </mxCell>
        <mxCell id="q0aATwDQZf616VQxDngV-82" style="rounded=0;orthogonalLoop=1;jettySize=auto;html=1;exitX=1;exitY=0;exitDx=0;exitDy=0;entryX=0;entryY=1;entryDx=0;entryDy=0;endArrow=none;endFill=0;" edge="1" parent="1" source="q0aATwDQZf616VQxDngV-14" target="q0aATwDQZf616VQxDngV-13">
          <mxGeometry relative="1" as="geometry" />
        </mxCell>
        <mxCell id="q0aATwDQZf616VQxDngV-14" value="Score" style="ellipse;whiteSpace=wrap;html=1;" vertex="1" parent="1">
          <mxGeometry x="510" y="180" width="60" height="20" as="geometry" />
        </mxCell>
        <mxCell id="q0aATwDQZf616VQxDngV-62" style="edgeStyle=orthogonalEdgeStyle;rounded=0;orthogonalLoop=1;jettySize=auto;html=1;exitX=1;exitY=0.5;exitDx=0;exitDy=0;entryX=0;entryY=0.5;entryDx=0;entryDy=0;endArrow=none;endFill=0;" edge="1" parent="1" source="q0aATwDQZf616VQxDngV-15" target="q0aATwDQZf616VQxDngV-19">
          <mxGeometry relative="1" as="geometry" />
        </mxCell>
        <mxCell id="q0aATwDQZf616VQxDngV-15" value="Game" style="rounded=0;whiteSpace=wrap;html=1;" vertex="1" parent="1">
          <mxGeometry x="690" y="120" width="80" height="30" as="geometry" />
        </mxCell>
        <mxCell id="q0aATwDQZf616VQxDngV-79" style="rounded=0;orthogonalLoop=1;jettySize=auto;html=1;exitX=0.5;exitY=1;exitDx=0;exitDy=0;entryX=0;entryY=0.25;entryDx=0;entryDy=0;endArrow=none;endFill=0;" edge="1" parent="1" source="q0aATwDQZf616VQxDngV-16" target="q0aATwDQZf616VQxDngV-15">
          <mxGeometry relative="1" as="geometry" />
        </mxCell>
        <mxCell id="q0aATwDQZf616VQxDngV-16" value="&lt;u&gt;game Id&lt;/u&gt;" style="ellipse;whiteSpace=wrap;html=1;" vertex="1" parent="1">
          <mxGeometry x="620" y="75" width="76" height="30" as="geometry" />
        </mxCell>
        <mxCell id="q0aATwDQZf616VQxDngV-80" style="rounded=0;orthogonalLoop=1;jettySize=auto;html=1;exitX=1;exitY=1;exitDx=0;exitDy=0;entryX=0.5;entryY=0;entryDx=0;entryDy=0;endArrow=none;endFill=0;" edge="1" parent="1" source="q0aATwDQZf616VQxDngV-17" target="q0aATwDQZf616VQxDngV-15">
          <mxGeometry relative="1" as="geometry" />
        </mxCell>
        <mxCell id="q0aATwDQZf616VQxDngV-17" value="Type" style="ellipse;whiteSpace=wrap;html=1;" vertex="1" parent="1">
          <mxGeometry x="680" y="55" width="50" height="25" as="geometry" />
        </mxCell>
        <mxCell id="q0aATwDQZf616VQxDngV-81" style="rounded=0;orthogonalLoop=1;jettySize=auto;html=1;exitX=0.5;exitY=1;exitDx=0;exitDy=0;entryX=0.75;entryY=0;entryDx=0;entryDy=0;endArrow=none;endFill=0;" edge="1" parent="1" source="q0aATwDQZf616VQxDngV-18" target="q0aATwDQZf616VQxDngV-15">
          <mxGeometry relative="1" as="geometry" />
        </mxCell>
        <mxCell id="q0aATwDQZf616VQxDngV-18" value="game_date" style="ellipse;whiteSpace=wrap;html=1;" vertex="1" parent="1">
          <mxGeometry x="740" y="70" width="76" height="30" as="geometry" />
        </mxCell>
        <mxCell id="q0aATwDQZf616VQxDngV-63" style="edgeStyle=orthogonalEdgeStyle;rounded=0;orthogonalLoop=1;jettySize=auto;html=1;exitX=1;exitY=0.5;exitDx=0;exitDy=0;entryX=0;entryY=0.5;entryDx=0;entryDy=0;endArrow=none;endFill=0;strokeWidth=2;" edge="1" parent="1" source="q0aATwDQZf616VQxDngV-19" target="q0aATwDQZf616VQxDngV-20">
          <mxGeometry relative="1" as="geometry" />
        </mxCell>
        <mxCell id="q0aATwDQZf616VQxDngV-19" value="Gives" style="rhombus;whiteSpace=wrap;html=1;" vertex="1" parent="1">
          <mxGeometry x="827" y="110" width="50" height="50" as="geometry" />
        </mxCell>
        <mxCell id="q0aATwDQZf616VQxDngV-64" style="edgeStyle=orthogonalEdgeStyle;rounded=0;orthogonalLoop=1;jettySize=auto;html=1;exitX=0.5;exitY=1;exitDx=0;exitDy=0;entryX=0.5;entryY=0;entryDx=0;entryDy=0;strokeWidth=2;" edge="1" parent="1" source="q0aATwDQZf616VQxDngV-20" target="q0aATwDQZf616VQxDngV-21">
          <mxGeometry relative="1" as="geometry" />
        </mxCell>
        <mxCell id="q0aATwDQZf616VQxDngV-20" value="Reward" style="rounded=0;whiteSpace=wrap;html=1;strokeWidth=2;" vertex="1" parent="1">
          <mxGeometry x="930" y="120" width="80" height="30" as="geometry" />
        </mxCell>
        <mxCell id="q0aATwDQZf616VQxDngV-65" style="edgeStyle=orthogonalEdgeStyle;rounded=0;orthogonalLoop=1;jettySize=auto;html=1;exitX=0.5;exitY=1;exitDx=0;exitDy=0;entryX=0.5;entryY=0;entryDx=0;entryDy=0;endArrow=none;endFill=0;" edge="1" parent="1" source="q0aATwDQZf616VQxDngV-21" target="q0aATwDQZf616VQxDngV-23">
          <mxGeometry relative="1" as="geometry" />
        </mxCell>
        <mxCell id="q0aATwDQZf616VQxDngV-21" value="Offers" style="rhombus;whiteSpace=wrap;html=1;strokeWidth=2;" vertex="1" parent="1">
          <mxGeometry x="945" y="220" width="50" height="50" as="geometry" />
        </mxCell>
        <mxCell id="q0aATwDQZf616VQxDngV-23" value="Sponsor" style="rounded=0;whiteSpace=wrap;html=1;" vertex="1" parent="1">
          <mxGeometry x="930" y="380" width="80" height="30" as="geometry" />
        </mxCell>
        <mxCell id="q0aATwDQZf616VQxDngV-85" style="rounded=0;orthogonalLoop=1;jettySize=auto;html=1;exitX=1;exitY=0;exitDx=0;exitDy=0;entryX=0.25;entryY=1;entryDx=0;entryDy=0;endArrow=none;endFill=0;" edge="1" parent="1" source="q0aATwDQZf616VQxDngV-24" target="q0aATwDQZf616VQxDngV-23">
          <mxGeometry relative="1" as="geometry" />
        </mxCell>
        <mxCell id="q0aATwDQZf616VQxDngV-24" value="Sponsor Name" style="ellipse;whiteSpace=wrap;html=1;" vertex="1" parent="1">
          <mxGeometry x="850" y="420" width="70" height="30" as="geometry" />
        </mxCell>
        <mxCell id="q0aATwDQZf616VQxDngV-86" style="rounded=0;orthogonalLoop=1;jettySize=auto;html=1;exitX=0.5;exitY=0;exitDx=0;exitDy=0;entryX=0.5;entryY=1;entryDx=0;entryDy=0;endArrow=none;endFill=0;" edge="1" parent="1" source="q0aATwDQZf616VQxDngV-25" target="q0aATwDQZf616VQxDngV-23">
          <mxGeometry relative="1" as="geometry" />
        </mxCell>
        <mxCell id="q0aATwDQZf616VQxDngV-25" value="&lt;u&gt;VAT&lt;/u&gt;" style="ellipse;whiteSpace=wrap;html=1;" vertex="1" parent="1">
          <mxGeometry x="920" y="460" width="60" height="20" as="geometry" />
        </mxCell>
        <mxCell id="q0aATwDQZf616VQxDngV-87" style="rounded=0;orthogonalLoop=1;jettySize=auto;html=1;exitX=0.5;exitY=0;exitDx=0;exitDy=0;entryX=0.75;entryY=1;entryDx=0;entryDy=0;endArrow=none;endFill=0;" edge="1" parent="1" source="q0aATwDQZf616VQxDngV-26" target="q0aATwDQZf616VQxDngV-23">
          <mxGeometry relative="1" as="geometry" />
        </mxCell>
        <mxCell id="q0aATwDQZf616VQxDngV-26" value="Sector" style="ellipse;whiteSpace=wrap;html=1;" vertex="1" parent="1">
          <mxGeometry x="995" y="445" width="60" height="20" as="geometry" />
        </mxCell>
        <mxCell id="q0aATwDQZf616VQxDngV-53" style="edgeStyle=orthogonalEdgeStyle;rounded=0;orthogonalLoop=1;jettySize=auto;html=1;exitX=0.5;exitY=0;exitDx=0;exitDy=0;entryX=0.5;entryY=1;entryDx=0;entryDy=0;endArrow=classic;endFill=1;strokeWidth=2;" edge="1" parent="1" source="q0aATwDQZf616VQxDngV-28" target="q0aATwDQZf616VQxDngV-27">
          <mxGeometry relative="1" as="geometry" />
        </mxCell>
        <mxCell id="q0aATwDQZf616VQxDngV-27" value="Has" style="rhombus;whiteSpace=wrap;html=1;" vertex="1" parent="1">
          <mxGeometry x="445" y="220" width="50" height="50" as="geometry" />
        </mxCell>
        <mxCell id="q0aATwDQZf616VQxDngV-51" style="edgeStyle=orthogonalEdgeStyle;rounded=0;orthogonalLoop=1;jettySize=auto;html=1;exitX=0.5;exitY=1;exitDx=0;exitDy=0;entryX=0.5;entryY=0;entryDx=0;entryDy=0;endArrow=none;endFill=0;" edge="1" parent="1" source="q0aATwDQZf616VQxDngV-28" target="q0aATwDQZf616VQxDngV-32">
          <mxGeometry relative="1" as="geometry" />
        </mxCell>
        <mxCell id="q0aATwDQZf616VQxDngV-66" style="rounded=0;orthogonalLoop=1;jettySize=auto;html=1;exitX=1;exitY=0.5;exitDx=0;exitDy=0;entryX=0;entryY=0;entryDx=0;entryDy=0;endArrow=none;endFill=0;" edge="1" parent="1" source="q0aATwDQZf616VQxDngV-28" target="q0aATwDQZf616VQxDngV-31">
          <mxGeometry relative="1" as="geometry" />
        </mxCell>
        <mxCell id="q0aATwDQZf616VQxDngV-28" value="&lt;div&gt;Player&lt;/div&gt;" style="rounded=0;whiteSpace=wrap;html=1;" vertex="1" parent="1">
          <mxGeometry x="435" y="345" width="70" height="30" as="geometry" />
        </mxCell>
        <mxCell id="q0aATwDQZf616VQxDngV-55" style="rounded=0;orthogonalLoop=1;jettySize=auto;html=1;exitX=1;exitY=1;exitDx=0;exitDy=0;entryX=0;entryY=0.5;entryDx=0;entryDy=0;endArrow=none;endFill=0;" edge="1" parent="1" source="q0aATwDQZf616VQxDngV-29" target="q0aATwDQZf616VQxDngV-28">
          <mxGeometry relative="1" as="geometry" />
        </mxCell>
        <mxCell id="q0aATwDQZf616VQxDngV-29" value="Votes" style="rhombus;whiteSpace=wrap;html=1;" vertex="1" parent="1">
          <mxGeometry x="245" y="335" width="50" height="50" as="geometry" />
        </mxCell>
        <mxCell id="q0aATwDQZf616VQxDngV-31" value="Plays" style="rhombus;whiteSpace=wrap;html=1;" vertex="1" parent="1">
          <mxGeometry x="705" y="335" width="50" height="50" as="geometry" />
        </mxCell>
        <mxCell id="q0aATwDQZf616VQxDngV-50" style="rounded=0;orthogonalLoop=1;jettySize=auto;html=1;exitX=1;exitY=0;exitDx=0;exitDy=0;entryX=0;entryY=0.5;entryDx=0;entryDy=0;endArrow=none;endFill=0;" edge="1" parent="1" source="q0aATwDQZf616VQxDngV-32" target="q0aATwDQZf616VQxDngV-45">
          <mxGeometry relative="1" as="geometry" />
        </mxCell>
        <mxCell id="q0aATwDQZf616VQxDngV-52" style="edgeStyle=orthogonalEdgeStyle;rounded=0;orthogonalLoop=1;jettySize=auto;html=1;exitX=0.5;exitY=1;exitDx=0;exitDy=0;entryX=0.5;entryY=0;entryDx=0;entryDy=0;endArrow=none;endFill=0;strokeWidth=2;" edge="1" parent="1" source="q0aATwDQZf616VQxDngV-32" target="q0aATwDQZf616VQxDngV-34">
          <mxGeometry relative="1" as="geometry" />
        </mxCell>
        <mxCell id="q0aATwDQZf616VQxDngV-32" value="Votes" style="rhombus;whiteSpace=wrap;html=1;" vertex="1" parent="1">
          <mxGeometry x="445" y="480" width="50" height="50" as="geometry" />
        </mxCell>
        <mxCell id="q0aATwDQZf616VQxDngV-34" value="Viewer" style="rounded=0;whiteSpace=wrap;html=1;" vertex="1" parent="1">
          <mxGeometry x="435" y="600" width="70" height="30" as="geometry" />
        </mxCell>
        <mxCell id="q0aATwDQZf616VQxDngV-83" style="rounded=0;orthogonalLoop=1;jettySize=auto;html=1;exitX=0;exitY=1;exitDx=0;exitDy=0;entryX=1;entryY=0;entryDx=0;entryDy=0;endArrow=none;endFill=0;" edge="1" parent="1" source="q0aATwDQZf616VQxDngV-35" target="q0aATwDQZf616VQxDngV-31">
          <mxGeometry relative="1" as="geometry" />
        </mxCell>
        <mxCell id="q0aATwDQZf616VQxDngV-35" value="lap number" style="ellipse;whiteSpace=wrap;html=1;" vertex="1" parent="1">
          <mxGeometry x="746" y="315" width="70" height="30" as="geometry" />
        </mxCell>
        <mxCell id="q0aATwDQZf616VQxDngV-84" style="rounded=0;orthogonalLoop=1;jettySize=auto;html=1;exitX=0;exitY=0;exitDx=0;exitDy=0;entryX=1;entryY=1;entryDx=0;entryDy=0;endArrow=none;endFill=0;" edge="1" parent="1" source="q0aATwDQZf616VQxDngV-36" target="q0aATwDQZf616VQxDngV-31">
          <mxGeometry relative="1" as="geometry" />
        </mxCell>
        <mxCell id="q0aATwDQZf616VQxDngV-36" value="Winner" style="ellipse;whiteSpace=wrap;html=1;" vertex="1" parent="1">
          <mxGeometry x="751" y="385" width="60" height="20" as="geometry" />
        </mxCell>
        <mxCell id="q0aATwDQZf616VQxDngV-69" style="rounded=0;orthogonalLoop=1;jettySize=auto;html=1;exitX=1;exitY=1;exitDx=0;exitDy=0;entryX=0.25;entryY=0;entryDx=0;entryDy=0;endArrow=none;endFill=0;" edge="1" parent="1" source="q0aATwDQZf616VQxDngV-37" target="q0aATwDQZf616VQxDngV-28">
          <mxGeometry relative="1" as="geometry" />
        </mxCell>
        <mxCell id="q0aATwDQZf616VQxDngV-37" value="&lt;u&gt;ID_Player&lt;/u&gt;" style="ellipse;whiteSpace=wrap;html=1;" vertex="1" parent="1">
          <mxGeometry x="375" y="270" width="65" height="20" as="geometry" />
        </mxCell>
        <mxCell id="q0aATwDQZf616VQxDngV-70" style="rounded=0;orthogonalLoop=1;jettySize=auto;html=1;exitX=0;exitY=1;exitDx=0;exitDy=0;entryX=0.75;entryY=0;entryDx=0;entryDy=0;endArrow=none;endFill=0;" edge="1" parent="1" source="q0aATwDQZf616VQxDngV-38" target="q0aATwDQZf616VQxDngV-28">
          <mxGeometry relative="1" as="geometry" />
        </mxCell>
        <mxCell id="q0aATwDQZf616VQxDngV-38" value="Age" style="ellipse;whiteSpace=wrap;html=1;" vertex="1" parent="1">
          <mxGeometry x="500" y="270" width="60" height="20" as="geometry" />
        </mxCell>
        <mxCell id="q0aATwDQZf616VQxDngV-71" style="rounded=0;orthogonalLoop=1;jettySize=auto;html=1;exitX=1;exitY=1;exitDx=0;exitDy=0;entryX=0.004;entryY=-0.094;entryDx=0;entryDy=0;endArrow=none;endFill=0;entryPerimeter=0;" edge="1" parent="1" source="q0aATwDQZf616VQxDngV-39" target="q0aATwDQZf616VQxDngV-28">
          <mxGeometry relative="1" as="geometry" />
        </mxCell>
        <mxCell id="q0aATwDQZf616VQxDngV-39" value="&lt;div&gt;Name&lt;/div&gt;" style="ellipse;whiteSpace=wrap;html=1;" vertex="1" parent="1">
          <mxGeometry x="330" y="295" width="60" height="20" as="geometry" />
        </mxCell>
        <mxCell id="q0aATwDQZf616VQxDngV-72" style="rounded=0;orthogonalLoop=1;jettySize=auto;html=1;exitX=1;exitY=0;exitDx=0;exitDy=0;entryX=0;entryY=1;entryDx=0;entryDy=0;endArrow=none;endFill=0;" edge="1" parent="1" source="q0aATwDQZf616VQxDngV-40" target="q0aATwDQZf616VQxDngV-28">
          <mxGeometry relative="1" as="geometry" />
        </mxCell>
        <mxCell id="q0aATwDQZf616VQxDngV-40" value="Surname" style="ellipse;whiteSpace=wrap;html=1;" vertex="1" parent="1">
          <mxGeometry x="360" y="400" width="60" height="20" as="geometry" />
        </mxCell>
        <mxCell id="q0aATwDQZf616VQxDngV-73" style="rounded=0;orthogonalLoop=1;jettySize=auto;html=1;exitX=1;exitY=0;exitDx=0;exitDy=0;entryX=0.25;entryY=1;entryDx=0;entryDy=0;endArrow=none;endFill=0;" edge="1" parent="1" source="q0aATwDQZf616VQxDngV-41" target="q0aATwDQZf616VQxDngV-28">
          <mxGeometry relative="1" as="geometry" />
        </mxCell>
        <mxCell id="q0aATwDQZf616VQxDngV-41" value="Job" style="ellipse;whiteSpace=wrap;html=1;" vertex="1" parent="1">
          <mxGeometry x="400" y="425" width="52" height="20" as="geometry" />
        </mxCell>
        <mxCell id="q0aATwDQZf616VQxDngV-74" style="rounded=0;orthogonalLoop=1;jettySize=auto;html=1;exitX=0.5;exitY=0;exitDx=0;exitDy=0;entryX=0.75;entryY=1;entryDx=0;entryDy=0;endArrow=none;endFill=0;" edge="1" parent="1" source="q0aATwDQZf616VQxDngV-42" target="q0aATwDQZf616VQxDngV-28">
          <mxGeometry relative="1" as="geometry" />
        </mxCell>
        <mxCell id="q0aATwDQZf616VQxDngV-42" value="Vote_out" style="ellipse;whiteSpace=wrap;html=1;" vertex="1" parent="1">
          <mxGeometry x="480" y="405" width="60" height="20" as="geometry" />
        </mxCell>
        <mxCell id="q0aATwDQZf616VQxDngV-47" style="rounded=0;orthogonalLoop=1;jettySize=auto;html=1;exitX=1;exitY=1;exitDx=0;exitDy=0;entryX=0;entryY=0.5;entryDx=0;entryDy=0;endArrow=none;endFill=0;" edge="1" parent="1" source="q0aATwDQZf616VQxDngV-43" target="q0aATwDQZf616VQxDngV-34">
          <mxGeometry relative="1" as="geometry" />
        </mxCell>
        <mxCell id="q0aATwDQZf616VQxDngV-43" value="&lt;u&gt;Phone_number&lt;/u&gt;" style="ellipse;whiteSpace=wrap;html=1;" vertex="1" parent="1">
          <mxGeometry x="335" y="560" width="100" height="40" as="geometry" />
        </mxCell>
        <mxCell id="q0aATwDQZf616VQxDngV-44" value="Date_Vote" style="ellipse;whiteSpace=wrap;html=1;" vertex="1" parent="1">
          <mxGeometry x="369" y="470" width="66" height="30" as="geometry" />
        </mxCell>
        <mxCell id="q0aATwDQZf616VQxDngV-45" value="Time_Vote" style="ellipse;whiteSpace=wrap;html=1;" vertex="1" parent="1">
          <mxGeometry x="510" y="460" width="66" height="30" as="geometry" />
        </mxCell>
        <mxCell id="q0aATwDQZf616VQxDngV-46" value="ID_Vote" style="ellipse;whiteSpace=wrap;html=1;" vertex="1" parent="1">
          <mxGeometry x="507" y="520" width="66" height="30" as="geometry" />
        </mxCell>
        <mxCell id="q0aATwDQZf616VQxDngV-48" style="rounded=0;orthogonalLoop=1;jettySize=auto;html=1;exitX=1;exitY=1;exitDx=0;exitDy=0;entryX=0;entryY=0;entryDx=0;entryDy=0;endArrow=none;endFill=0;" edge="1" parent="1" source="q0aATwDQZf616VQxDngV-32" target="q0aATwDQZf616VQxDngV-46">
          <mxGeometry relative="1" as="geometry">
            <mxPoint x="490" y="659" as="sourcePoint" />
            <mxPoint x="528.0000000000001" y="620" as="targetPoint" />
          </mxGeometry>
        </mxCell>
        <mxCell id="q0aATwDQZf616VQxDngV-49" style="rounded=0;orthogonalLoop=1;jettySize=auto;html=1;exitX=1;exitY=0.5;exitDx=0;exitDy=0;entryX=0;entryY=0;entryDx=0;entryDy=0;endArrow=none;endFill=0;" edge="1" parent="1" source="q0aATwDQZf616VQxDngV-44" target="q0aATwDQZf616VQxDngV-32">
          <mxGeometry relative="1" as="geometry">
            <mxPoint x="406" y="585" as="sourcePoint" />
            <mxPoint x="456" y="606" as="targetPoint" />
          </mxGeometry>
        </mxCell>
        <mxCell id="q0aATwDQZf616VQxDngV-61" style="edgeStyle=orthogonalEdgeStyle;rounded=0;orthogonalLoop=1;jettySize=auto;html=1;exitX=0.5;exitY=1;exitDx=0;exitDy=0;strokeWidth=2;endArrow=none;endFill=0;entryX=0.5;entryY=0;entryDx=0;entryDy=0;" edge="1" parent="1" source="q0aATwDQZf616VQxDngV-15" target="q0aATwDQZf616VQxDngV-31">
          <mxGeometry relative="1" as="geometry">
            <mxPoint x="720" y="330" as="targetPoint" />
          </mxGeometry>
        </mxCell>
        <mxCell id="q0aATwDQZf616VQxDngV-76" style="rounded=0;orthogonalLoop=1;jettySize=auto;html=1;exitX=1;exitY=1;exitDx=0;exitDy=0;entryX=0.387;entryY=0.041;entryDx=0;entryDy=0;entryPerimeter=0;endArrow=none;endFill=0;" edge="1" parent="1" source="q0aATwDQZf616VQxDngV-8" target="q0aATwDQZf616VQxDngV-7">
          <mxGeometry relative="1" as="geometry" />
        </mxCell>
        <mxCell id="q0aATwDQZf616VQxDngV-77" style="rounded=0;orthogonalLoop=1;jettySize=auto;html=1;exitX=0.5;exitY=1;exitDx=0;exitDy=0;entryX=0.641;entryY=-0.086;entryDx=0;entryDy=0;entryPerimeter=0;endArrow=none;endFill=0;" edge="1" parent="1" source="q0aATwDQZf616VQxDngV-10" target="q0aATwDQZf616VQxDngV-7">
          <mxGeometry relative="1" as="geometry" />
        </mxCell>
        <mxCell id="q0aATwDQZf616VQxDngV-78" style="rounded=0;orthogonalLoop=1;jettySize=auto;html=1;exitX=0;exitY=1;exitDx=0;exitDy=0;entryX=0.883;entryY=0.041;entryDx=0;entryDy=0;entryPerimeter=0;endArrow=none;endFill=0;" edge="1" parent="1" source="q0aATwDQZf616VQxDngV-12" target="q0aATwDQZf616VQxDngV-7">
          <mxGeometry relative="1" as="geometry" />
        </mxCell>
        <mxCell id="q0aATwDQZf616VQxDngV-91" style="rounded=0;orthogonalLoop=1;jettySize=auto;html=1;exitX=1;exitY=1;exitDx=0;exitDy=0;entryX=0.25;entryY=0;entryDx=0;entryDy=0;endArrow=none;endFill=0;" edge="1" parent="1" source="q0aATwDQZf616VQxDngV-88" target="q0aATwDQZf616VQxDngV-20">
          <mxGeometry relative="1" as="geometry" />
        </mxCell>
        <mxCell id="q0aATwDQZf616VQxDngV-88" value="&lt;u&gt;Reward_Id&lt;/u&gt;" style="ellipse;whiteSpace=wrap;html=1;" vertex="1" parent="1">
          <mxGeometry x="869" y="80" width="76" height="30" as="geometry" />
        </mxCell>
        <mxCell id="q0aATwDQZf616VQxDngV-92" style="rounded=0;orthogonalLoop=1;jettySize=auto;html=1;exitX=0.5;exitY=1;exitDx=0;exitDy=0;entryX=0.5;entryY=0;entryDx=0;entryDy=0;endArrow=none;endFill=0;" edge="1" parent="1" source="q0aATwDQZf616VQxDngV-89" target="q0aATwDQZf616VQxDngV-20">
          <mxGeometry relative="1" as="geometry" />
        </mxCell>
        <mxCell id="q0aATwDQZf616VQxDngV-89" value="Reward title" style="ellipse;whiteSpace=wrap;html=1;" vertex="1" parent="1">
          <mxGeometry x="937" y="53.75" width="86" height="35" as="geometry" />
        </mxCell>
        <mxCell id="q0aATwDQZf616VQxDngV-93" style="rounded=0;orthogonalLoop=1;jettySize=auto;html=1;exitX=0;exitY=1;exitDx=0;exitDy=0;entryX=0.75;entryY=0;entryDx=0;entryDy=0;endArrow=none;endFill=0;" edge="1" parent="1" source="q0aATwDQZf616VQxDngV-90" target="q0aATwDQZf616VQxDngV-20">
          <mxGeometry relative="1" as="geometry" />
        </mxCell>
        <mxCell id="q0aATwDQZf616VQxDngV-90" value="Reward_Type" style="ellipse;whiteSpace=wrap;html=1;" vertex="1" parent="1">
          <mxGeometry x="1010" y="88.75" width="90" height="22.5" as="geometry" />
        </mxCell>
        <mxCell id="q0aATwDQZf616VQxDngV-94" style="rounded=0;orthogonalLoop=1;jettySize=auto;html=1;exitX=1;exitY=0.5;exitDx=0;exitDy=0;entryX=0;entryY=1;entryDx=0;entryDy=0;endArrow=none;endFill=0;" edge="1" parent="1" source="q0aATwDQZf616VQxDngV-28" target="q0aATwDQZf616VQxDngV-31">
          <mxGeometry relative="1" as="geometry">
            <mxPoint x="515" y="370" as="sourcePoint" />
            <mxPoint x="728" y="358" as="targetPoint" />
          </mxGeometry>
        </mxCell>
        <mxCell id="q0aATwDQZf616VQxDngV-95" style="rounded=0;orthogonalLoop=1;jettySize=auto;html=1;exitX=1;exitY=0;exitDx=0;exitDy=0;endArrow=none;endFill=0;entryX=0;entryY=0.5;entryDx=0;entryDy=0;" edge="1" parent="1" source="q0aATwDQZf616VQxDngV-29" target="q0aATwDQZf616VQxDngV-28">
          <mxGeometry relative="1" as="geometry">
            <mxPoint x="283" y="385" as="sourcePoint" />
            <mxPoint x="430" y="360" as="targetPoint" />
          </mxGeometry>
        </mxCell>
      </root>
    </mxGraphModel>
  </diagram>
</mxfile>
